<svg width="89" height="31" viewBox="0 0 89 31" fill="none" xmlns="http://www.w3.org/2000/svg">
<path d="M35.7633 26.8334V18.2083H41.4741V19.7118H37.5869V21.767H41.095V23.2705H37.5869V26.8334H35.7633ZM48.4198 20.9963C48.3609 20.7913 48.278 20.6102 48.1713 20.453C48.0646 20.293 47.9341 20.1582 47.7797 20.0487C47.6281 19.9364 47.454 19.8508 47.2574 19.7918C47.0637 19.7328 46.8489 19.7034 46.6131 19.7034C46.1723 19.7034 45.7848 19.8129 45.4507 20.0319C45.1194 20.2509 44.8611 20.5695 44.6758 20.9879C44.4905 21.4034 44.3979 21.9116 44.3979 22.5124C44.3979 23.1132 44.4891 23.6242 44.6716 24.0454C44.8541 24.4665 45.1124 24.788 45.4465 25.0098C45.7806 25.2288 46.1751 25.3383 46.6299 25.3383C47.0427 25.3383 47.395 25.2653 47.687 25.1193C47.9818 24.9705 48.2064 24.7613 48.3609 24.4918C48.5181 24.2223 48.5967 23.9036 48.5967 23.5358L48.9673 23.5905H46.7436V22.2176H50.3529V23.3042C50.3529 24.0622 50.1928 24.7136 49.8728 25.2583C49.5527 25.8002 49.1119 26.2185 48.5504 26.5133C47.9888 26.8053 47.3459 26.9513 46.6215 26.9513C45.8129 26.9513 45.1026 26.773 44.4905 26.4164C43.8785 26.0571 43.4012 25.5475 43.0586 24.8877C42.7189 24.2251 42.549 23.4389 42.549 22.5293C42.549 21.8302 42.6501 21.2069 42.8523 20.6594C43.0572 20.1091 43.3436 19.643 43.7114 19.2612C44.0792 18.8793 44.5074 18.5887 44.9959 18.3894C45.4844 18.19 46.0137 18.0904 46.5836 18.0904C47.0721 18.0904 47.527 18.162 47.9481 18.3052C48.3693 18.4455 48.7427 18.6449 49.0684 18.9032C49.3969 19.1615 49.665 19.4689 49.8728 19.8255C50.0805 20.1793 50.2139 20.5695 50.2729 20.9963H48.4198ZM51.7227 26.8334V18.2083H55.1255C55.7797 18.2083 56.337 18.3332 56.7975 18.5831C57.2579 18.8302 57.6089 19.1741 57.8503 19.6149C58.0946 20.0529 58.2167 20.5583 58.2167 21.1311C58.2167 21.7038 58.0932 22.2092 57.8461 22.6472C57.599 23.0852 57.2411 23.4263 56.7722 23.6706C56.3061 23.9148 55.7418 24.037 55.0792 24.037H52.9103V22.5756H54.7844C55.1353 22.5756 55.4245 22.5152 55.6519 22.3945C55.8822 22.271 56.0534 22.1011 56.1657 21.8849C56.2809 21.6659 56.3384 21.4146 56.3384 21.1311C56.3384 20.8447 56.2809 20.5948 56.1657 20.3814C56.0534 20.1652 55.8822 19.9982 55.6519 19.8802C55.4217 19.7595 55.1297 19.6992 54.776 19.6992H53.5462V26.8334H51.7227ZM59.4012 26.8334V18.2083H65.213V19.7118H61.2248V21.767H64.914V23.2705H61.2248V25.3299H65.2299V26.8334H59.4012ZM69.7203 26.8334H66.6628V18.2083H69.7456C70.6132 18.2083 71.36 18.381 71.9861 18.7263C72.6122 19.0688 73.0937 19.5616 73.4306 20.2045C73.7704 20.8475 73.9402 21.6168 73.9402 22.5124C73.9402 23.4109 73.7704 24.183 73.4306 24.8287C73.0937 25.4745 72.6094 25.97 71.9777 26.3154C71.3488 26.6607 70.5963 26.8334 69.7203 26.8334ZM68.4864 25.2709H69.6445C70.1836 25.2709 70.637 25.1755 71.0048 24.9845C71.3754 24.7908 71.6534 24.4918 71.8387 24.0875C72.0268 23.6804 72.1209 23.1554 72.1209 22.5124C72.1209 21.8751 72.0268 21.3543 71.8387 20.95C71.6534 20.5457 71.3768 20.248 71.009 20.0571C70.6412 19.8662 70.1878 19.7708 69.6487 19.7708H68.4864V25.2709ZM77.1146 18.2083V26.8334H75.291V18.2083H77.1146ZM80.1016 26.8334H78.1475L81.125 18.2083H83.475L86.4483 26.8334H84.4941L82.3337 20.1793H82.2663L80.1016 26.8334ZM79.9795 23.4431H84.5952V24.8666H79.9795V23.4431Z" fill="black"/>
<g clip-path="url(#clip0_90_49)">
<path d="M11.0426 2.00024C10.5976 2.88014 10.3415 3.87197 10.3423 4.92551C10.3433 7.89098 12.3357 10.3864 15.0531 11.1607C16.2812 8.72588 15.8816 5.68067 13.8472 3.64822C13.0385 2.84008 12.0692 2.29265 11.0426 2.00024Z" fill="url(#paint0_linear_90_49)"/>
<path d="M12.379 13.9287C11.629 11.1714 9.11408 9.14172 6.11929 9.14325C4.98831 9.1437 3.92571 9.43454 3 9.94347C3.28682 11.0012 3.84033 12.0016 4.67148 12.8316C6.75983 14.9185 9.91479 15.2813 12.379 13.9287Z" fill="url(#paint1_linear_90_49)"/>
<path d="M18.7854 20.155C17.3563 22.6373 17.6961 25.8596 19.8194 27.98C20.5841 28.7441 21.4931 29.2734 22.4578 29.5764C23.0061 28.6237 23.3243 27.5218 23.3237 26.3435C23.3227 23.4402 21.4147 20.9838 18.7854 20.155Z" fill="url(#paint2_linear_90_49)"/>
<path d="M21.376 17.6472C22.2241 20.2471 24.6654 22.1269 27.5481 22.1249C28.6413 22.1246 29.6697 21.8511 30.5734 21.3733C30.2665 20.4316 29.7446 19.5447 28.9959 18.7967C26.9323 16.7346 23.8266 16.3523 21.376 17.6472Z" fill="url(#paint3_linear_90_49)"/>
<path d="M10.3423 26.3487C10.3427 27.5251 10.6609 28.6251 11.2085 29.5765C12.1749 29.2729 13.0854 28.7421 13.8509 27.9757C15.9703 25.8548 16.3089 22.635 14.8806 20.1548C12.2488 20.984 10.3403 23.4432 10.3423 26.3487Z" fill="url(#paint4_linear_90_49)"/>
<path d="M12.2908 17.6472C9.83851 16.3507 6.73081 16.7347 4.66773 18.7998C3.92072 19.5473 3.40014 20.4334 3.09375 21.3737C3.99901 21.8523 5.02953 22.1257 6.12485 22.1249C9.00505 22.1239 11.4434 20.2448 12.2908 17.6472Z" fill="url(#paint5_linear_90_49)"/>
<path d="M23.3236 4.92035C23.3233 3.8685 23.0671 2.87849 22.6226 2C21.5949 2.29297 20.6246 2.84152 19.8157 3.65128C17.7841 5.68429 17.3866 8.7275 18.6132 11.1606C21.3325 10.3858 23.3252 7.88805 23.3236 4.92035Z" fill="url(#paint6_linear_90_49)"/>
<path d="M21.2881 13.9285C23.7544 15.2821 26.9114 14.9181 28.9996 12.8273C29.8283 11.9981 30.3805 10.9993 30.6668 9.94332C29.7396 9.4337 28.6754 9.14271 27.5426 9.14325C24.5498 9.14439 22.038 11.1737 21.2881 13.9285Z" fill="url(#paint7_linear_90_49)"/>
</g>
<path d="M35.9217 13.3339V5.83508H36.8298V9.17438H40.8282V5.83508H41.7362V13.3339H40.8282V9.97992H36.8298V13.3339H35.9217ZM45.7218 13.451C45.214 13.451 44.7686 13.3302 44.3853 13.0885C44.0045 12.8469 43.7067 12.5088 43.4919 12.0743C43.2795 11.6398 43.1734 11.1321 43.1734 10.5511C43.1734 9.96527 43.2795 9.45388 43.4919 9.01694C43.7067 8.58 44.0045 8.2407 44.3853 7.99904C44.7686 7.75738 45.214 7.63655 45.7218 7.63655C46.2295 7.63655 46.6738 7.75738 47.0546 7.99904C47.4378 8.2407 47.7356 8.58 47.948 9.01694C48.1628 9.45388 48.2702 9.96527 48.2702 10.5511C48.2702 11.1321 48.1628 11.6398 47.948 12.0743C47.7356 12.5088 47.4378 12.8469 47.0546 13.0885C46.6738 13.3302 46.2295 13.451 45.7218 13.451ZM45.7218 12.6748C46.1074 12.6748 46.4248 12.5759 46.6738 12.3782C46.9227 12.1805 47.107 11.9205 47.2266 11.5983C47.3463 11.2761 47.4061 10.927 47.4061 10.5511C47.4061 10.1752 47.3463 9.82491 47.2266 9.50026C47.107 9.1756 46.9227 8.9132 46.6738 8.71303C46.4248 8.51287 46.1074 8.41279 45.7218 8.41279C45.3361 8.41279 45.0188 8.51287 44.7698 8.71303C44.5208 8.9132 44.3365 9.1756 44.2169 9.50026C44.0973 9.82491 44.0375 10.1752 44.0375 10.5511C44.0375 10.927 44.0973 11.2761 44.2169 11.5983C44.3365 11.9205 44.5208 12.1805 44.7698 12.3782C45.0188 12.5759 45.3361 12.6748 45.7218 12.6748ZM53.573 8.96934L52.7967 9.18903C52.7479 9.05966 52.6759 8.93394 52.5807 8.81189C52.4879 8.6874 52.361 8.58488 52.1999 8.50433C52.0388 8.42377 51.8325 8.3835 51.5811 8.3835C51.2369 8.3835 50.9501 8.46283 50.7206 8.6215C50.4936 8.77772 50.3801 8.97666 50.3801 9.21832C50.3801 9.43313 50.4582 9.60278 50.6145 9.72727C50.7707 9.85176 51.0148 9.95551 51.3468 10.0385L52.1816 10.2435C52.6844 10.3656 53.0591 10.5523 53.3057 10.8038C53.5522 11.0527 53.6755 11.3737 53.6755 11.7667C53.6755 12.0889 53.5827 12.377 53.3972 12.6309C53.2141 12.8847 52.9578 13.0849 52.6283 13.2313C52.2988 13.3778 51.9155 13.451 51.4786 13.451C50.9049 13.451 50.4302 13.3265 50.0543 13.0776C49.6783 12.8286 49.4403 12.4649 49.3403 11.9864L50.1604 11.7814C50.2385 12.0841 50.3862 12.3111 50.6035 12.4624C50.8232 12.6138 51.11 12.6894 51.4639 12.6894C51.8667 12.6894 52.1865 12.604 52.4232 12.4331C52.6625 12.2598 52.7821 12.0523 52.7821 11.8107C52.7821 11.6154 52.7137 11.4518 52.577 11.32C52.4403 11.1858 52.2304 11.0857 51.9473 11.0198L51.0099 10.8001C50.4949 10.678 50.1165 10.4889 49.8748 10.2326C49.6356 9.97381 49.516 9.65038 49.516 9.26226C49.516 8.94493 49.6051 8.66421 49.7833 8.42011C49.9639 8.17601 50.2093 7.98439 50.5193 7.84525C50.8317 7.70612 51.1857 7.63655 51.5811 7.63655C52.1377 7.63655 52.5746 7.7586 52.8919 8.0027C53.2117 8.2468 53.4387 8.56901 53.573 8.96934ZM57.4221 7.70978V8.44208H54.5076V7.70978H57.4221ZM55.357 6.36234H56.2212V11.7228C56.2212 11.9669 56.2565 12.15 56.3273 12.272C56.4006 12.3916 56.4933 12.4722 56.6056 12.5137C56.7203 12.5527 56.8412 12.5723 56.9681 12.5723C57.0633 12.5723 57.1414 12.5674 57.2024 12.5576C57.2635 12.5454 57.3123 12.5357 57.3489 12.5283L57.5247 13.3046C57.4661 13.3265 57.3843 13.3485 57.2793 13.3705C57.1744 13.3949 57.0413 13.4071 56.8802 13.4071C56.6361 13.4071 56.3969 13.3546 56.1626 13.2496C55.9307 13.1447 55.7378 12.9848 55.5841 12.77C55.4327 12.5552 55.357 12.2842 55.357 11.9571V6.36234ZM61.0196 13.451C60.4777 13.451 60.0102 13.3314 59.6172 13.0922C59.2266 12.8505 58.9252 12.5137 58.7128 12.0816C58.5029 11.6471 58.3979 11.1418 58.3979 10.5658C58.3979 9.98968 58.5029 9.48195 58.7128 9.04257C58.9252 8.60075 59.2205 8.25656 59.5989 8.01002C59.9797 7.76104 60.424 7.63655 60.9317 7.63655C61.2246 7.63655 61.5139 7.68537 61.7995 7.78301C62.0851 7.88065 62.345 8.03931 62.5794 8.25901C62.8137 8.47626 63.0004 8.76429 63.1396 9.12312C63.2787 9.48195 63.3483 9.92377 63.3483 10.4486V10.8147H59.0131V10.0678H62.4695C62.4695 9.75046 62.4061 9.4673 62.2791 9.21832C62.1546 8.96934 61.9764 8.77284 61.7445 8.62882C61.5151 8.4848 61.2441 8.41279 60.9317 8.41279C60.5875 8.41279 60.2897 8.49822 60.0383 8.6691C59.7893 8.83752 59.5977 9.05722 59.4634 9.32817C59.3292 9.59912 59.262 9.8896 59.262 10.1996V10.6976C59.262 11.1223 59.3353 11.4824 59.4817 11.7777C59.6306 12.0706 59.8369 12.294 60.1005 12.4478C60.3642 12.5991 60.6705 12.6748 61.0196 12.6748C61.2466 12.6748 61.4516 12.6431 61.6347 12.5796C61.8202 12.5137 61.9801 12.416 62.1144 12.2867C62.2486 12.1549 62.3524 11.9913 62.4256 11.796L63.2604 12.0304C63.1725 12.3135 63.0249 12.5625 62.8174 12.7773C62.6099 12.9897 62.3536 13.1557 62.0485 13.2753C61.7433 13.3924 61.4004 13.451 61.0196 13.451ZM66.7864 13.451C66.3178 13.451 65.904 13.3326 65.5452 13.0959C65.1864 12.8566 64.9057 12.5198 64.703 12.0853C64.5004 11.6483 64.3991 11.1321 64.3991 10.5365C64.3991 9.94574 64.5004 9.43313 64.703 8.99863C64.9057 8.56413 65.1876 8.22849 65.5489 7.99172C65.9101 7.75494 66.3275 7.63655 66.8011 7.63655C67.1672 7.63655 67.4565 7.69757 67.6689 7.81962C67.8837 7.93923 68.0472 8.07593 68.1595 8.22971C68.2742 8.38106 68.3633 8.50555 68.4268 8.60319H68.5V5.83508H69.3642V13.3339H68.5293V12.4697H68.4268C68.3633 12.5723 68.273 12.7016 68.1559 12.8579C68.0387 13.0116 67.8715 13.1496 67.6542 13.2716C67.437 13.3912 67.1477 13.451 66.7864 13.451ZM66.9036 12.6748C67.2502 12.6748 67.5432 12.5845 67.7824 12.4038C68.0216 12.2208 68.2035 11.9681 68.3279 11.6459C68.4524 11.3213 68.5147 10.9466 68.5147 10.5218C68.5147 10.102 68.4537 9.7346 68.3316 9.41971C68.2096 9.10237 68.0289 8.85583 67.7897 8.68008C67.5505 8.50189 67.2551 8.41279 66.9036 8.41279C66.5375 8.41279 66.2323 8.50677 65.9882 8.69473C65.7466 8.88024 65.5647 9.13289 65.4427 9.45266C65.3231 9.76999 65.2633 10.1264 65.2633 10.5218C65.2633 10.9221 65.3243 11.2859 65.4463 11.613C65.5708 11.9376 65.7539 12.1964 65.9956 12.3892C66.2397 12.5796 66.5423 12.6748 66.9036 12.6748ZM74.0838 13.3339V5.83508H76.7055C77.2279 5.83508 77.6587 5.9254 77.998 6.10604C78.3373 6.28423 78.5899 6.52467 78.7559 6.82735C78.9219 7.1276 79.0049 7.4608 79.0049 7.82695C79.0049 8.14916 78.9476 8.41523 78.8328 8.62516C78.7205 8.83508 78.5716 9.00107 78.3861 9.12312C78.203 9.24517 78.0041 9.33549 77.7893 9.39407V9.4673C78.0187 9.48195 78.2494 9.5625 78.4813 9.70896C78.7132 9.85543 78.9073 10.0654 79.0635 10.3387C79.2197 10.6121 79.2978 10.9466 79.2978 11.342C79.2978 11.7179 79.2124 12.056 79.0415 12.3562C78.8707 12.6565 78.6009 12.8945 78.2323 13.0702C77.8637 13.246 77.3841 13.3339 76.7934 13.3339H74.0838ZM74.9919 12.5283H76.7934C77.3865 12.5283 77.8076 12.4136 78.0566 12.1841C78.308 11.9523 78.4337 11.6715 78.4337 11.342C78.4337 11.0881 78.369 10.8538 78.2397 10.639C78.1103 10.4217 77.926 10.2484 77.6868 10.1191C77.4476 9.98724 77.1644 9.92133 76.8373 9.92133H74.9919V12.5283ZM74.9919 9.13045H76.6762C76.9496 9.13045 77.1961 9.07674 77.4158 8.96934C77.638 8.86193 77.8137 8.71059 77.9431 8.51531C78.0749 8.32003 78.1408 8.09058 78.1408 7.82695C78.1408 7.49741 78.0261 7.21792 77.7966 6.98846C77.5672 6.75656 77.2035 6.64062 76.7055 6.64062H74.9919V9.13045ZM81.2293 15.4429C81.0828 15.4429 80.9522 15.4307 80.8375 15.4063C80.7228 15.3843 80.6434 15.3623 80.5995 15.3404L80.8192 14.5788C81.0291 14.6325 81.2146 14.652 81.3757 14.6374C81.5369 14.6227 81.6797 14.5507 81.8041 14.4213C81.9311 14.2944 82.047 14.0881 82.152 13.8025L82.3131 13.3632L80.2334 7.70978H81.1707L82.7232 12.1915H82.7818L84.3342 7.70978H85.2716L82.8843 14.154C82.7769 14.4445 82.6438 14.685 82.4852 14.8754C82.3265 15.0682 82.1422 15.211 81.9323 15.3038C81.7248 15.3965 81.4905 15.4429 81.2293 15.4429Z" fill="black"/>
<defs>
<linearGradient id="paint0_linear_90_49" x1="10.3423" y1="2.00024" x2="18.361" y2="6.7319" gradientUnits="userSpaceOnUse">
<stop stop-color="#00CFFF"/>
<stop offset="1" stop-color="#007BFF"/>
</linearGradient>
<linearGradient id="paint1_linear_90_49" x1="3" y1="9.14325" x2="7.9101" y2="17.3891" gradientUnits="userSpaceOnUse">
<stop stop-color="#00BFFF"/>
<stop offset="1" stop-color="#6A5ACD"/>
</linearGradient>
<linearGradient id="paint2_linear_90_49" x1="17.9204" y1="20.155" x2="26.0523" y2="24.8187" gradientUnits="userSpaceOnUse">
<stop stop-color="#007BFF"/>
<stop offset="1" stop-color="#00FFEF"/>
</linearGradient>
<linearGradient id="paint3_linear_90_49" x1="21.376" y1="16.8976" x2="25.8671" y2="24.7997" gradientUnits="userSpaceOnUse">
<stop stop-color="#00BFFF"/>
<stop offset="1" stop-color="#40E0D0"/>
</linearGradient>
<linearGradient id="paint4_linear_90_49" x1="10.3423" y1="20.1548" x2="18.4743" y2="24.8185" gradientUnits="userSpaceOnUse">
<stop stop-color="#1E90FF"/>
<stop offset="1" stop-color="#00FA9A"/>
</linearGradient>
<linearGradient id="paint5_linear_90_49" x1="3.09375" y1="16.897" x2="7.58568" y2="24.7994" gradientUnits="userSpaceOnUse">
<stop stop-color="#00BFFF"/>
<stop offset="1" stop-color="#8A2BE2"/>
</linearGradient>
<linearGradient id="paint6_linear_90_49" x1="17.9189" y1="2" x2="25.9372" y2="6.73074" gradientUnits="userSpaceOnUse">
<stop stop-color="#00D9FF"/>
<stop offset="1" stop-color="#007BFF"/>
</linearGradient>
<linearGradient id="paint7_linear_90_49" x1="21.2881" y1="9.14325" x2="26.1981" y2="17.3889" gradientUnits="userSpaceOnUse">
<stop stop-color="#00D9FF"/>
<stop offset="1" stop-color="#6A5ACD"/>
</linearGradient>
<clipPath id="clip0_90_49">
<rect width="27.6669" height="27.6175" fill="white" transform="translate(3 2)"/>
</clipPath>
</defs>
</svg>
