<svg width="586" height="164" viewBox="0 0 586 164" fill="none" xmlns="http://www.w3.org/2000/svg">
<g filter="url(#filter0_d_36_3)">
<path d="M165.563 15.1241C166.226 15.7988 166.889 16.4736 167.572 17.1687C168.304 17.9069 169.037 18.6451 169.792 19.4056C173.497 23.3484 177.16 27.343 180.764 31.4333C180.407 32.3353 180.049 33.2373 179.681 34.1667C176.984 33.5584 175.525 32.9904 173.428 30.6899C168.553 26.6582 162.429 28.8977 156.951 30.0667C152.176 31.6321 147.536 33.5264 142.894 35.6334C140.836 36.5647 138.768 37.4548 136.697 38.3414C129.656 41.4607 123.744 44.5313 117.984 50.5667C118.519 53.2727 118.519 53.2727 119.066 56.0333C117.816 55.8642 116.566 55.6951 115.277 55.5208C110.275 55.5432 107.499 57.7402 103.718 61.7189C98.434 68.4615 93.0879 79.1723 93.0879 88.8333C98.4006 88.0617 102.669 85.8397 107.43 82.9396C114.835 78.5798 122.093 76.0684 130.145 74.3722C134.774 73.4689 134.774 73.4689 138.017 69.5452C138.192 68.6943 138.368 67.8434 138.549 66.9667C130.414 65.8686 130.414 65.8686 122.246 65.6854C119.066 65.6 119.066 65.6 116.901 62.8667C117.307 59.9625 117.307 59.9625 117.984 57.4C122.302 55.6623 126.719 55.6503 131.209 55.4568C132.083 55.417 132.956 55.3773 133.856 55.3364C136.683 55.2154 139.51 55.1092 142.338 55.0083C143.77 54.9557 143.77 54.9557 145.23 54.902C178.272 53.7767 178.272 53.7767 188.341 60.1333C187.983 61.4863 187.626 62.8393 187.258 64.2333C184.401 64.6843 181.543 65.1353 178.599 65.6C177.412 70.096 177.733 72.0412 178.599 76.5333C177.237 76.4206 175.875 76.3078 174.472 76.1917C162.024 76.362 152.251 85.3679 142.084 93.4512C138.539 96.2504 134.966 98.7199 131.175 100.963C127.002 103.467 124.439 106.447 121.231 110.7C111.21 120.278 111.21 120.278 106.077 123C103.641 122.488 103.641 122.488 101.747 121.633C103.854 114.353 105.539 111.452 110.407 106.6C111.125 103.205 111.125 103.205 111.489 99.7667C112.538 97.9132 113.615 96.0846 114.736 94.3C114.736 93.398 114.736 92.496 114.736 91.5667C113.614 92.0441 112.493 92.5215 111.337 93.0134C109.854 93.6417 108.371 94.2699 106.889 94.8979C106.151 95.2124 105.412 95.5269 104.652 95.8509C94.8372 100.002 94.8372 100.002 91.2613 98.7417C88.7582 97.0333 88.7582 97.0333 87.6758 92.9333C86.6935 79.2901 90.9181 67.5428 96.3352 56.0333C85.4503 57.7733 74.5564 59.5428 63.8626 62.6958C62.5231 63.0869 61.1837 63.478 59.8036 63.881C52.647 67.3781 49.2304 75.1519 45.3262 83.025C44.2819 85.0946 43.2376 87.1642 42.1931 89.2337C41.6621 90.2932 41.131 91.3526 40.5838 92.4442C37.9661 97.6618 35.3231 102.859 32.6755 108.052C32.2086 108.977 31.7417 109.903 31.2606 110.856C28.8318 115.627 26.3312 120.333 23.7329 124.959C23.231 125.86 22.7291 126.761 22.212 127.69C20.2811 130.204 18.9414 130.679 16.2363 131.2C14.4773 128.979 14.4773 128.979 12.989 125.733C14.292 119.114 16.7645 113.345 19.4159 107.454C20.0427 106.049 20.0427 106.049 20.6822 104.616C24.4297 96.3776 28.605 88.5627 32.967 80.8262C35.0408 77.1359 36.744 74.0206 37.8846 69.7C36.5674 70.3765 35.2503 71.053 33.8932 71.75C30.4007 73.3968 27.5805 74.4995 23.8132 73.8C23.0988 72.898 22.3844 71.996 21.6484 71.0667C21.6484 69.7137 21.6484 68.3607 21.6484 66.9667C27.8166 62.7731 33.7831 60.029 40.5484 57.7043C43.5447 56.3121 43.5447 56.3121 44.7597 52.4405C44.9913 51.3711 45.2229 50.3018 45.4615 49.2C46.4161 49.2215 46.4161 49.2215 47.3899 49.2434C59.0033 49.4693 70.2579 49.466 81.7479 47.15C86.948 46.2057 92.1453 45.9426 97.3922 45.7033C101.049 45.0292 103.061 43.6374 106.077 41C106.994 40.2522 106.994 40.2522 107.929 39.4892C108.523 39.0012 109.118 38.5132 109.73 38.0104C111.393 36.7172 113.063 35.4378 114.736 34.1667C115.848 33.314 116.96 32.4613 118.106 31.5828C129.361 23.3096 141.124 19.0143 153.703 15.0333C154.461 14.7823 155.219 14.5312 156 14.2726C159.532 13.2199 162.32 12.8925 165.563 15.1241Z" fill="#0091FF"/>
<path d="M103.912 45.1C103.912 47.8333 103.912 47.8333 101.883 50.5667C100.744 51.9197 100.744 51.9197 99.5824 53.3C98.868 54.202 98.1536 55.104 97.4176 56.0333C94.7656 56.5152 92.1683 56.8622 89.5024 57.1438C81.8312 58.1353 74.3599 59.7776 66.8393 61.9271C65.3903 62.3137 65.3903 62.3137 63.9121 62.7082C54.2379 65.5898 50.3834 72.8266 45.3262 83.025C44.282 85.0946 43.2376 87.1642 42.1931 89.2337C41.6621 90.2932 41.131 91.3526 40.5838 92.4442C37.9661 97.6618 35.3231 102.859 32.6755 108.052C32.2086 108.977 31.7417 109.903 31.2606 110.856C28.8318 115.627 26.3312 120.333 23.7329 124.959C23.231 125.86 22.7291 126.761 22.212 127.69C20.2811 130.204 18.9414 130.679 16.2363 131.2C14.4773 128.979 14.4773 128.979 12.989 125.733C14.292 119.114 16.7645 113.345 19.4159 107.454C20.0427 106.049 20.0427 106.049 20.6822 104.616C24.4297 96.3775 28.605 88.5627 32.967 80.8262C35.0408 77.1359 36.744 74.0206 37.8846 69.7C36.5675 70.3765 35.2503 71.053 33.8932 71.75C30.4007 73.3968 27.5805 74.4995 23.8132 73.8C23.0988 72.898 22.3844 71.996 21.6484 71.0667C21.6484 69.7137 21.6484 68.3607 21.6484 66.9667C27.8166 62.7731 33.7831 60.029 40.5484 57.7043C43.5447 56.3121 43.5447 56.3121 44.7597 52.4405C44.9913 51.3711 45.2229 50.3018 45.4615 49.2C46.4161 49.2215 46.4161 49.2215 47.3899 49.2434C59.0023 49.4693 70.2473 49.4393 81.7394 47.166C89.0563 45.8093 96.5143 45.1 103.912 45.1Z" fill="#0091FF"/>
<path d="M98.5 32.8C96.1182 36.257 94.5152 37.4837 90.9477 38.2436C90.0873 38.4349 89.227 38.6261 88.3407 38.8231C87.4138 39.0112 86.487 39.1993 85.5321 39.3931C84.5722 39.5996 83.6123 39.8062 82.6233 40.019C80.5908 40.4527 78.5572 40.8784 76.5226 41.2966C73.4295 41.9338 70.3405 42.5978 67.2515 43.2662C65.2723 43.6851 63.2928 44.1025 61.313 44.5181C59.9393 44.8127 59.9393 44.8127 58.5377 45.1132C53.0238 46.2338 47.8015 46.8329 42.2143 46.4667C40.0495 44.4167 40.0495 44.4167 38.967 42.3667C39.3242 41.4647 39.6814 40.5627 40.0495 39.6333C42.2172 38.7391 42.2172 38.7391 45.0683 37.9677C46.632 37.5388 46.632 37.5388 48.2273 37.1012C49.3462 36.8093 50.465 36.5174 51.6178 36.2167C53.3212 35.7643 53.3212 35.7643 55.059 35.3028C89.849 26.215 89.849 26.215 98.5 32.8Z" fill="#0091FF"/>
<path d="M94.1703 75.1667C93.8131 78.3237 93.4559 81.4807 93.0879 84.7333C92.7307 83.8313 92.3735 82.9293 92.0055 82C90.9339 82.6765 90.9339 82.6765 89.8407 83.3667C89.3998 86.5395 89.0349 89.7311 88.7582 92.9333C88.401 92.9333 88.0438 92.9333 87.6758 92.9333C87.3578 80.8873 87.3578 80.8873 89.8407 76.5333C92.0055 75.1667 92.0055 75.1667 94.1703 75.1667Z" fill="#0091FF"/>
</g>
<path d="M209.259 105L227.499 38.952H258.603L277.707 105H254.187L251.691 92.328H234.603L231.819 105H209.259ZM236.619 80.52H249.387L243.147 51.624L236.619 80.52ZM282.394 105V56.904H302.362V68.904C303.642 64.552 305.626 61.352 308.314 59.304C311.066 57.256 314.33 56.232 318.106 56.232L320.506 73.224C318.97 73.032 317.466 72.936 315.994 72.936C307.098 72.936 302.65 76.584 302.65 83.88V105H282.394ZM347.75 105.768C343.206 105.768 339.494 105 336.614 103.464C333.798 101.928 331.75 99.848 330.47 97.224C329.19 94.6 328.55 91.656 328.55 88.392V68.808H322.406V56.904H329.99L338.918 41.736H348.806V56.904H359.942V68.808H348.806V85.608C348.806 87.08 349.286 88.232 350.246 89.064C351.206 89.832 352.454 90.216 353.99 90.216C355.526 90.216 357.062 89.832 358.598 89.064L360.038 102.408C358.502 103.496 356.55 104.328 354.182 104.904C351.814 105.48 349.67 105.768 347.75 105.768ZM384.716 105.768C380.428 105.768 376.94 105 374.252 103.464C371.628 101.928 369.708 99.848 368.492 97.224C367.276 94.6 366.668 91.656 366.668 88.392V56.904H386.924V85.608C386.924 87.08 387.34 88.232 388.172 89.064C389.068 89.832 390.124 90.216 391.34 90.216C392.62 90.216 393.932 89.832 395.276 89.064L396.332 102.408C394.924 103.496 393.1 104.328 390.86 104.904C388.62 105.48 386.572 105.768 384.716 105.768ZM376.844 51.624C373.9 51.624 371.372 50.696 369.26 48.84C367.148 46.92 366.092 44.584 366.092 41.832C366.092 39.912 366.604 38.248 367.628 36.84C368.652 35.368 369.996 34.216 371.66 33.384C373.324 32.552 375.052 32.136 376.844 32.136C378.828 32.136 380.62 32.584 382.22 33.48C383.884 34.376 385.196 35.56 386.156 37.032C387.18 38.504 387.692 40.104 387.692 41.832C387.692 43.752 387.148 45.448 386.06 46.92C385.036 48.392 383.692 49.544 382.028 50.376C380.428 51.208 378.7 51.624 376.844 51.624ZM424.512 105.768C419.136 105.768 414.496 104.712 410.592 102.6C406.688 100.488 403.68 97.608 401.568 93.96C399.456 90.248 398.4 85.992 398.4 81.192C398.4 76.456 399.488 72.2 401.664 68.424C403.84 64.648 406.88 61.672 410.784 59.496C414.752 57.32 419.328 56.232 424.512 56.232C430.72 56.232 435.616 57.512 439.2 60.072L437.088 73.128C435.488 72.424 433.984 71.944 432.576 71.688C431.168 71.368 429.824 71.208 428.544 71.208C425.408 71.208 422.912 72.104 421.056 73.896C419.264 75.624 418.368 77.992 418.368 81C418.368 83.944 419.264 86.344 421.056 88.2C422.848 89.992 425.216 90.888 428.16 90.888C430.72 90.888 433.728 90.344 437.184 89.256L439.008 102.696C436.896 103.72 434.688 104.488 432.384 105C430.144 105.512 427.52 105.768 424.512 105.768ZM465.275 105.768C460.731 105.768 457.019 105 454.139 103.464C451.323 101.928 449.275 99.848 447.995 97.224C446.715 94.6 446.075 91.656 446.075 88.392V39.816L466.331 36.84V85.608C466.331 87.08 466.811 88.232 467.771 89.064C468.731 89.832 469.979 90.216 471.515 90.216C473.051 90.216 474.587 89.832 476.123 89.064L477.563 102.408C476.027 103.496 474.075 104.328 471.707 104.904C469.339 105.48 467.195 105.768 465.275 105.768ZM511.75 92.328C513.606 92.328 515.558 92.136 517.606 91.752C519.718 91.368 521.862 90.664 524.038 89.64L526.342 102.024C523.974 103.24 521.382 104.168 518.566 104.808C515.814 105.448 512.646 105.768 509.062 105.768C502.598 105.768 497.158 104.712 492.742 102.6C488.39 100.488 485.094 97.576 482.854 93.864C480.614 90.152 479.494 85.864 479.494 81C479.494 76.008 480.678 71.656 483.046 67.944C485.478 64.232 488.71 61.352 492.742 59.304C496.774 57.256 501.222 56.232 506.086 56.232C513.318 56.232 518.854 58.504 522.694 63.048C526.534 67.528 528.454 73.928 528.454 82.248L499.846 85.896C501.958 90.184 505.926 92.328 511.75 92.328ZM498.31 77.064L513.382 73.896C513.126 71.848 512.422 70.344 511.27 69.384C510.118 68.36 508.678 67.848 506.95 67.848C504.39 67.848 502.342 68.744 500.806 70.536C499.334 72.264 498.502 74.44 498.31 77.064ZM550.6 105.768C547.72 105.768 544.808 105.48 541.864 104.904C538.92 104.328 536.264 103.528 533.896 102.504L536.68 90.408C538.152 91.176 540.168 91.848 542.728 92.424C545.288 92.936 547.56 93.192 549.544 93.192C552.744 93.192 554.344 92.328 554.344 90.6C554.344 89.768 553.832 89.16 552.808 88.776C551.848 88.392 550.568 88.072 548.968 87.816C547.432 87.496 545.768 87.112 543.976 86.664C542.184 86.152 540.488 85.416 538.888 84.456C537.352 83.432 536.072 81.992 535.048 80.136C534.088 78.28 533.608 75.848 533.608 72.84C533.608 67.784 535.592 63.752 539.56 60.744C543.592 57.736 549.096 56.232 556.072 56.232C558.76 56.232 561.256 56.424 563.56 56.808C565.928 57.192 568.168 57.992 570.28 59.208L568.264 70.92C564.872 69.512 561.32 68.808 557.608 68.808C555.24 68.808 553.512 69 552.424 69.384C551.4 69.768 550.888 70.408 550.888 71.304C550.888 72.008 551.4 72.552 552.424 72.936C553.448 73.32 554.76 73.704 556.36 74.088C558.024 74.408 559.752 74.888 561.544 75.528C563.336 76.104 565.032 76.936 566.632 78.024C568.296 79.112 569.64 80.584 570.664 82.44C571.688 84.232 572.2 86.568 572.2 89.448C572.2 94.568 570.312 98.568 566.536 101.448C562.76 104.328 557.448 105.768 550.6 105.768Z" fill="black"/>
<defs>
<filter id="filter0_d_36_3" x="-4" y="0" width="205" height="172" filterUnits="userSpaceOnUse" color-interpolation-filters="sRGB">
<feFlood flood-opacity="0" result="BackgroundImageFix"/>
<feColorMatrix in="SourceAlpha" type="matrix" values="0 0 0 0 0 0 0 0 0 0 0 0 0 0 0 0 0 0 127 0" result="hardAlpha"/>
<feOffset dy="4"/>
<feGaussianBlur stdDeviation="2"/>
<feComposite in2="hardAlpha" operator="out"/>
<feColorMatrix type="matrix" values="0 0 0 0 0 0 0 0 0 0 0 0 0 0 0 0 0 0 0.25 0"/>
<feBlend mode="normal" in2="BackgroundImageFix" result="effect1_dropShadow_36_3"/>
<feBlend mode="normal" in="SourceGraphic" in2="effect1_dropShadow_36_3" result="shape"/>
</filter>
</defs>
</svg>
